<svg width="1920" height="457" viewBox="0 0 1920 457" fill="none" xmlns="http://www.w3.org/2000/svg">
<g opacity="0.6" filter="url(#filter0_d_8_1063)">
<rect x="-40.1224" y="176.405" width="2019.37" height="112" transform="rotate(-1.00334 -40.1224 176.405)" fill="#C9FA49"/>
</g>
<g filter="url(#filter1_d_8_1063)">
<rect x="-51.0385" y="246.929" width="2019.37" height="112" transform="rotate(-5 -51.0385 246.929)" fill="#C9FA49"/>
</g>
<g clip-path="url(#clip0_8_1063)">
<path fill-rule="evenodd" clip-rule="evenodd" d="M1043.17 209.551C1042.68 203.933 1039.57 199.738 1034.37 200.192C1029.15 200.649 1026.38 205.358 1026.86 210.933C1027.44 217.538 1031.46 220.548 1036.82 220.08C1039.43 219.851 1041.35 219.086 1042.77 218.122L1042.39 213.732C1040.96 214.609 1039.29 215.22 1037.12 215.41C1034.99 215.596 1033.04 215.015 1032.57 212.446L1043.3 211.508C1043.28 211.222 1043.22 210.077 1043.17 209.551ZM1032.15 208.414C1031.93 205.934 1033.36 204.77 1034.74 204.649C1036.08 204.532 1037.6 205.439 1037.81 207.919L1032.15 208.414Z" fill="black"/>
<path fill-rule="evenodd" clip-rule="evenodd" d="M1017.52 201.666C1015.37 201.854 1014.07 202.985 1013.37 203.754L1012.96 202.418L1008.13 202.841L1010.37 228.429L1015.76 226.786L1015.24 220.574C1016.08 221.075 1017.31 221.786 1019.24 221.617C1023.17 221.273 1026.47 217.8 1025.86 210.843C1025.28 204.481 1021.36 201.33 1017.52 201.666ZM1017.52 216.902C1016.23 217.015 1015.42 216.621 1014.84 216.097L1014.11 207.957C1014.63 207.271 1015.38 206.763 1016.63 206.653C1018.62 206.479 1020.2 208.596 1020.45 211.471C1020.71 214.412 1019.54 216.725 1017.52 216.902Z" fill="black"/>
<path fill-rule="evenodd" clip-rule="evenodd" d="M1000.44 201.855L1005.85 200.188L1005.46 195.733L1000.05 197.378L1000.44 201.855Z" fill="black"/>
<path d="M1006.1 203.041L1000.59 203.523L1002.27 222.725L1007.77 222.243L1006.1 203.041Z" fill="black"/>
<path fill-rule="evenodd" clip-rule="evenodd" d="M994.826 205.663L994.332 204.07L989.592 204.484L991.271 223.686L996.758 223.207L995.62 210.193C996.767 208.39 998.988 208.505 999.69 208.687L999.248 203.64C998.523 203.438 995.913 203.179 994.826 205.663Z" fill="black"/>
<path fill-rule="evenodd" clip-rule="evenodd" d="M983.295 200.236L978.04 201.845L979.555 219.426C979.839 222.674 982.484 224.853 985.732 224.569C987.531 224.411 988.819 223.967 989.509 223.509L989.119 219.054C988.442 219.401 985.063 220.713 984.779 217.465L984.098 209.675L988.267 209.31L987.859 204.636L983.689 205L983.295 200.236Z" fill="black"/>
<path fill-rule="evenodd" clip-rule="evenodd" d="M969.363 211.87C969.289 211.014 969.962 210.623 971.125 210.522C972.793 210.376 974.944 210.696 976.69 211.45L976.239 206.293C974.355 205.728 972.53 205.6 970.709 205.759C966.254 206.149 963.495 208.734 963.834 212.619C964.364 218.676 972.619 216.981 972.847 219.592C972.935 220.602 972.086 221.008 970.857 221.115C969.036 221.274 966.644 220.732 964.713 219.883L965.169 225.107C967.287 225.806 969.383 225.999 971.27 225.834C975.835 225.434 978.775 222.9 978.432 218.971C977.838 212.433 969.578 214.328 969.363 211.87Z" fill="black"/>
</g>
<g clip-path="url(#clip1_8_1063)">
<path d="M752.297 225.835C747.435 226.26 743.959 230.283 744.391 235.224C744.823 240.165 748.846 243.501 753.804 243.067C758.762 242.634 762.204 238.582 761.775 233.672C761.348 228.794 757.32 225.395 752.297 225.835ZM753.526 239.503C750.757 239.746 748.54 237.773 748.287 234.885C748.032 231.964 749.84 229.64 752.609 229.398C755.411 229.153 757.629 231.158 757.882 234.046C758.134 236.934 756.294 239.261 753.526 239.503ZM762.413 228.734L764.828 228.523L765.979 241.681L769.842 241.343L768.392 224.751L762.113 225.3L762.413 228.734ZM734.224 231.004C736.253 230.827 737.973 231.938 738.746 233.745L742.836 233.388C741.747 229.474 738.227 227.065 733.946 227.439C729.083 227.865 725.607 231.888 726.039 236.83C726.471 241.772 730.494 245.107 735.453 244.673C739.638 244.307 742.751 241.319 743.141 237.242L739.083 237.597C738.666 239.509 737.169 240.934 735.14 241.111C732.338 241.356 730.187 239.377 729.934 236.489C729.68 233.569 731.424 231.249 734.224 231.004ZM836.108 225.588L833.239 225.419C831.87 225.345 830.865 224.98 830.772 223.921C830.671 222.766 831.877 222.079 833.582 221.929C835.45 221.766 836.712 222.464 837.084 223.757L840.819 223.43C840.108 220.13 837.361 218.398 833.402 218.744C829.312 219.101 826.79 221.424 827.049 224.376C827.295 227.2 829.21 228.683 832.828 228.883L835.697 229.052C837.099 229.123 837.92 229.602 838.01 230.629C838.125 231.944 836.82 232.608 834.953 232.771C832.666 232.971 831.297 232.153 830.981 230.758L827.181 231.091C827.82 234.301 830.562 236.357 835.198 235.951C839.416 235.582 842.048 233.412 841.759 230.106C841.501 227.154 839.338 225.79 836.108 225.588ZM765.862 218.084C764.445 218.208 763.472 219.328 763.596 220.739C763.719 222.151 764.871 223.085 766.289 222.961C767.705 222.837 768.679 221.717 768.555 220.306C768.432 218.894 767.279 217.96 765.862 218.084ZM823.655 225.643C823.341 222.049 820.942 219.833 816.305 220.239C811.926 220.622 809.673 223.051 809.487 226.495L813.319 226.16C813.397 224.827 814.332 223.646 816.522 223.454C818.486 223.283 819.528 224.064 819.62 225.124C819.741 226.504 818 227.011 815.831 227.427C812.897 228.007 809.316 229.355 809.653 233.206C809.914 236.191 812.304 237.921 815.846 237.612C818.615 237.369 820.252 236.062 820.962 234.156C821.234 235.782 822.55 236.734 824.257 236.585L826.511 236.388L826.211 232.954L824.31 233.12L823.657 225.642L823.655 225.643ZM820.221 230.147C820.415 232.362 818.626 234.167 816.275 234.373C814.826 234.499 813.549 233.997 813.437 232.714C813.294 231.077 815.219 230.456 817.005 230.106C818.73 229.794 819.662 229.324 820.081 228.543L820.221 230.147ZM798.822 221.766C796.664 221.955 794.94 223.012 793.784 224.632L792.99 215.55L789.127 215.888L791.189 239.476L794.988 239.144L794.797 236.962C796.222 238.422 798.14 239.192 800.329 239C804.965 238.595 808.155 234.63 807.723 229.687C807.291 224.745 803.394 221.367 798.822 221.766ZM799.438 235.489C796.669 235.731 794.452 233.758 794.2 230.87C793.947 227.982 795.817 225.62 798.586 225.378C801.388 225.133 803.539 227.112 803.794 230.031C804.046 232.919 802.207 235.247 799.438 235.489ZM780.469 223.371C777.958 223.591 776.405 224.761 775.566 226.29L775.378 224.14L771.546 224.475L772.996 241.066L776.86 240.728L776.071 231.711C775.85 229.175 777.302 227.238 779.685 227.029C781.907 226.835 783.428 228.286 783.627 230.565L784.458 240.065L788.322 239.727L787.466 229.939C787.102 225.766 784.688 223.002 780.469 223.371ZM859.834 224.581C859.419 219.832 855.65 216.798 850.981 217.207C846.023 217.64 842.71 221.681 843.139 226.591C843.591 231.758 847.787 234.85 852.552 234.434C856.577 234.082 859.525 231.431 860.034 227.991L856.009 228.343C855.559 229.87 854.215 230.829 852.315 230.995C849.835 231.212 847.833 229.834 847.179 227.175L859.962 226.057L859.833 224.581L859.834 224.581ZM847.164 224.395C847.575 222.031 849.215 220.756 851.211 220.581C853.4 220.39 855.184 221.495 855.761 223.643L847.164 224.395Z" fill="black"/>
</g>
<g clip-path="url(#clip2_8_1063)">
<path d="M1199.34 182.8L1191.5 183.486C1190.96 183.533 1190.54 183.963 1190.5 184.5L1189.09 204.895C1189.06 205.297 1189.4 205.628 1189.8 205.593L1193.55 205.266C1194.08 205.219 1194.51 204.789 1194.54 204.25L1194.92 198.749C1194.96 198.211 1195.38 197.781 1195.92 197.734L1198.4 197.517C1203.57 197.065 1206.34 194.304 1206.68 189.28C1206.84 187.081 1206.36 185.407 1205.24 184.303C1204.01 183.09 1201.97 182.57 1199.34 182.8ZM1200.89 190.068C1200.71 192.921 1198.56 193.109 1196.48 193.291L1195.29 193.394L1195.67 188.064C1195.69 187.742 1195.94 187.484 1196.26 187.456L1196.81 187.408C1198.22 187.285 1199.56 187.168 1200.32 187.915C1200.77 188.361 1200.96 189.065 1200.89 190.068Z" fill="black"/>
<path d="M1223.43 188.006L1219.67 188.334C1219.35 188.362 1219.1 188.621 1219.08 188.943L1219 190.008L1218.7 189.65C1217.79 188.541 1215.94 188.305 1214.13 188.463C1209.98 188.826 1206.71 192.28 1206.4 196.752C1206.24 198.983 1206.93 201.042 1208.31 202.4C1209.57 203.649 1211.26 204.068 1213.21 203.898C1216.55 203.605 1218.22 201.292 1218.22 201.292L1218.14 202.351C1218.11 202.756 1218.45 203.087 1218.85 203.052L1222.24 202.756C1222.77 202.709 1223.19 202.279 1223.23 201.74L1224.14 188.704C1224.17 188.303 1223.83 187.971 1223.43 188.006ZM1218.83 195.776C1218.66 197.954 1217.08 199.543 1214.91 199.733C1213.82 199.829 1212.91 199.555 1212.3 198.941C1211.68 198.331 1211.39 197.412 1211.48 196.353C1211.63 194.196 1213.23 192.556 1215.37 192.369C1216.44 192.276 1217.33 192.555 1217.96 193.173C1218.6 193.799 1218.91 194.722 1218.83 195.776Z" fill="black"/>
<path d="M1243.44 186.256L1239.66 186.586C1239.3 186.618 1238.98 186.826 1238.8 187.144L1234.27 195.269L1231.41 188.091C1231.24 187.642 1230.78 187.363 1230.3 187.405L1226.59 187.73C1226.14 187.769 1225.86 188.237 1226.05 188.649L1231.27 200.488L1227.84 206.349C1227.57 206.811 1227.94 207.381 1228.47 207.335L1232.24 207.005C1232.6 206.974 1232.92 206.77 1233.09 206.459L1244.06 187.236C1244.33 186.776 1243.97 186.21 1243.44 186.256Z" fill="black"/>
<path d="M1255.3 177.907L1247.46 178.593C1246.92 178.64 1246.5 179.069 1246.46 179.607L1245.05 200.002C1245.02 200.404 1245.36 200.735 1245.76 200.7L1249.78 200.348C1250.16 200.315 1250.45 200.014 1250.48 199.637L1250.88 193.856C1250.92 193.318 1251.34 192.888 1251.88 192.841L1254.36 192.624C1259.53 192.172 1262.29 189.411 1262.64 184.387C1262.8 182.188 1262.31 180.514 1261.19 179.41C1259.97 178.197 1257.93 177.677 1255.3 177.907ZM1256.85 185.175C1256.67 188.027 1254.52 188.215 1252.44 188.397L1251.25 188.501L1251.63 183.171C1251.65 182.849 1251.9 182.591 1252.22 182.563L1252.77 182.515C1254.18 182.391 1255.52 182.274 1256.28 183.022C1256.73 183.467 1256.92 184.172 1256.85 185.175Z" fill="black"/>
<path d="M1279.39 183.113L1275.63 183.441C1275.31 183.469 1275.06 183.727 1275.04 184.049L1274.96 185.115L1274.66 184.757C1273.75 183.648 1271.9 183.411 1270.09 183.57C1265.94 183.933 1262.67 187.387 1262.37 191.858C1262.2 194.09 1262.89 196.149 1264.27 197.507C1265.53 198.756 1267.22 199.175 1269.17 199.004C1272.51 198.712 1274.18 196.399 1274.18 196.399L1274.1 197.457C1274.07 197.862 1274.41 198.193 1274.82 198.158L1278.2 197.862C1278.73 197.815 1279.16 197.385 1279.19 196.847L1280.1 183.811C1280.13 183.41 1279.79 183.078 1279.39 183.113ZM1274.79 190.883C1274.62 193.06 1273.04 194.65 1270.87 194.84C1269.78 194.936 1268.87 194.662 1268.25 194.048C1267.64 193.438 1267.35 192.519 1267.43 191.46C1267.59 189.302 1269.19 187.663 1271.33 187.476C1272.39 187.383 1273.29 187.661 1273.92 188.28C1274.56 188.906 1274.87 189.829 1274.79 190.883Z" fill="black"/>
<path d="M1283.23 176.02L1281.8 196.788C1281.77 197.19 1282.11 197.521 1282.51 197.486L1285.75 197.203C1286.29 197.156 1286.71 196.726 1286.75 196.188L1288.16 175.794C1288.19 175.391 1287.85 175.059 1287.45 175.094L1283.83 175.411C1283.51 175.44 1283.25 175.698 1283.23 176.02Z" fill="black"/>
<path d="M1156.92 212.408L1157.18 208.545L1155.84 208.631L1149.46 209.189L1151.44 180.681C1151.44 180.595 1151.48 180.512 1151.54 180.45C1151.6 180.388 1151.68 180.35 1151.77 180.342L1162.53 179.401C1166.1 179.089 1168.63 179.617 1170.05 180.971C1170.71 181.607 1171.16 182.292 1171.42 183.068C1171.68 183.881 1171.77 184.873 1171.69 186.1L1171.68 186.19L1171.75 186.965L1172.38 187.254C1172.92 187.479 1173.35 187.752 1173.69 188.079C1174.25 188.622 1174.65 189.341 1174.87 190.215C1175.1 191.114 1175.14 192.204 1175.01 193.453C1174.86 194.891 1174.52 196.16 1174.01 197.22C1173.54 198.197 1172.9 199.028 1172.12 199.698C1171.37 200.334 1170.46 200.847 1169.41 201.216C1168.39 201.578 1167.22 201.818 1165.92 201.932L1165.08 202.005C1164.49 202.057 1163.92 202.324 1163.5 202.75C1163.08 203.185 1162.82 203.751 1162.78 204.348L1162.75 204.697L1162.27 211.506L1162.25 211.757C1162.24 211.836 1162.22 211.877 1162.19 211.906C1162.17 211.933 1162.13 211.952 1162.09 211.956L1156.92 212.408Z" fill="black"/>
<path d="M1172.87 186.176C1172.85 186.384 1172.83 186.597 1172.81 186.817C1172.03 194.226 1167.39 197.168 1161.19 197.71L1158.04 197.986C1157.28 198.052 1156.69 198.659 1156.63 199.417L1155.92 209.809L1155.71 212.755C1155.68 213.252 1156.09 213.662 1156.59 213.619L1162.19 213.129C1162.85 213.071 1163.37 212.54 1163.42 211.877L1163.45 211.588L1163.92 204.806L1163.96 204.433C1164 203.767 1164.52 203.236 1165.19 203.178L1166.02 203.105C1171.45 202.631 1175.5 200.057 1176.19 193.575C1176.47 190.867 1176.01 188.667 1174.5 187.224C1174.04 186.789 1173.5 186.442 1172.87 186.176Z" fill="black"/>
<path d="M1171.33 185.714C1171.11 185.67 1170.88 185.632 1170.64 185.601C1170.41 185.57 1170.17 185.546 1169.92 185.529C1169.06 185.465 1168.12 185.481 1167.12 185.569L1158.69 186.306C1158.48 186.324 1158.29 186.389 1158.12 186.489C1157.75 186.71 1157.49 187.104 1157.46 187.561L1156.66 199.081L1156.63 199.417C1156.69 198.659 1157.28 198.052 1158.04 197.986L1161.19 197.71C1167.39 197.168 1172.03 194.225 1172.81 186.817C1172.83 186.597 1172.85 186.384 1172.87 186.176C1172.49 186.017 1172.09 185.888 1171.66 185.786C1171.55 185.761 1171.44 185.737 1171.33 185.714Z" fill="black"/>
<path d="M1157.46 187.56C1157.49 187.103 1157.75 186.71 1158.12 186.49C1158.29 186.39 1158.48 186.326 1158.69 186.307L1167.12 185.57C1168.12 185.483 1169.06 185.466 1169.92 185.53C1170.17 185.547 1170.41 185.571 1170.64 185.602C1170.88 185.633 1171.11 185.671 1171.33 185.715C1171.44 185.738 1171.55 185.762 1171.66 185.786C1172.09 185.888 1172.49 186.018 1172.87 186.176C1173.05 183.447 1172.47 181.651 1170.87 180.118C1169.1 178.431 1166.14 177.902 1162.43 178.226L1151.67 179.167C1150.91 179.233 1150.32 179.84 1150.26 180.6L1148.27 209.401C1148.23 209.97 1148.71 210.44 1149.27 210.39L1155.91 209.809L1156.66 199.081L1157.46 187.56Z" fill="black"/>
</g>
<g clip-path="url(#clip3_8_1063)">
<path fill-rule="evenodd" clip-rule="evenodd" d="M1396.84 188.699C1393.31 185.77 1392.86 180.563 1395.82 177.067L1403.85 167.574C1406.36 164.619 1410.5 163.834 1413.84 165.431C1414.88 165.925 1414.99 167.256 1414.25 168.13C1413.51 169.004 1412.18 169.05 1411.05 168.828C1409.61 168.543 1408.06 169.027 1407.04 170.225L1399.01 179.719C1397.53 181.466 1397.75 184.07 1399.51 185.535C1401.27 186.999 1403.9 186.769 1405.38 185.022L1421.45 166.035C1424.41 162.54 1429.66 162.08 1433.18 165.009L1442.75 172.964C1446.27 175.892 1446.72 181.1 1443.76 184.596C1440.8 188.091 1435.55 188.55 1432.03 185.622L1428.84 182.97L1425.5 186.926C1422.99 189.88 1418.85 190.666 1415.51 189.068C1414.47 188.575 1414.36 187.243 1415.1 186.369C1415.84 185.495 1417.17 185.449 1418.3 185.672C1419.74 185.957 1421.29 185.472 1422.31 184.274L1425.75 180.205C1427.18 178.52 1429.71 178.299 1431.41 179.711L1434.71 182.457C1436.47 183.921 1439.1 183.692 1440.58 181.944C1442.05 180.196 1441.83 177.593 1440.07 176.128L1430.5 168.174C1428.74 166.709 1426.12 166.939 1424.64 168.687L1408.57 187.673C1405.61 191.169 1400.36 191.628 1396.84 188.699Z" fill="black"/>
<path d="M1477.74 163.383C1475.71 163.561 1474.22 164.426 1473.33 165.975C1472.31 164.593 1470.83 163.988 1468.94 164.152C1467 164.322 1465.63 165.116 1464.83 166.565L1464.69 164.953L1460.7 165.302L1462.03 180.509L1466.01 180.161L1465.27 171.614C1465.07 169.394 1466.11 168.077 1467.87 167.924C1469.51 167.78 1470.56 168.761 1470.72 170.586L1471.51 179.68L1475.5 179.331L1474.75 170.785C1474.56 168.565 1475.5 167.256 1477.32 167.097C1478.96 166.954 1480.01 167.935 1480.17 169.76L1480.96 178.853L1484.95 178.505L1484.13 169.137C1483.8 165.336 1481.3 163.072 1477.74 163.383Z" fill="black"/>
<path d="M1498.59 163.797C1497.25 162.412 1495.52 161.828 1493.36 162.017C1491.29 162.198 1489.6 163.143 1488.25 164.824C1486.93 166.502 1486.36 168.452 1486.56 170.703C1486.75 172.953 1487.66 174.805 1489.25 176.229C1490.87 177.65 1492.69 178.257 1494.76 178.076C1496.92 177.887 1498.53 177.011 1499.6 175.415L1499.76 177.21L1503.74 176.861L1502.41 161.654L1498.43 162.003L1498.59 163.797ZM1492.02 173.351C1491.14 172.6 1490.65 171.601 1490.54 170.354C1490.43 169.107 1490.74 168.038 1491.48 167.177C1492.21 166.286 1493.19 165.801 1494.43 165.693C1495.66 165.585 1496.72 165.892 1497.59 166.642C1498.49 167.36 1498.99 168.359 1499.09 169.606C1499.2 170.853 1498.89 171.922 1498.13 172.817C1497.4 173.678 1496.41 174.162 1495.18 174.27C1493.94 174.378 1492.89 174.072 1492.02 173.351Z" fill="black"/>
<path d="M1517.34 162.984L1517.12 160.369L1505.53 161.382L1505.85 165.062L1512.06 164.519L1506.32 174L1506.55 176.616L1518.75 175.549L1518.43 171.869L1511.57 172.468L1517.34 162.984Z" fill="black"/>
<path d="M1534.89 168.101C1534.93 167.515 1534.95 166.992 1534.9 166.475C1534.7 164.194 1533.8 162.373 1532.18 160.952C1530.59 159.528 1528.64 158.932 1526.39 159.129C1524.01 159.337 1522.1 160.27 1520.72 161.954C1519.34 163.607 1518.73 165.59 1518.93 167.872C1519.14 170.183 1520.08 172.032 1521.75 173.417C1523.43 174.803 1525.54 175.385 1528.1 175.161C1531.06 174.902 1533.22 173.609 1534.55 171.318L1531.18 169.774C1530.49 170.845 1529.36 171.465 1527.85 171.597C1525.47 171.805 1523.94 170.989 1523.24 169.119L1534.89 168.101ZM1522.92 166.083C1523.21 164.096 1524.56 162.844 1526.69 162.657C1528.52 162.498 1530.15 163.366 1530.79 165.394L1522.92 166.083Z" fill="black"/>
</g>
<g clip-path="url(#clip4_8_1063)">
<path d="M399.206 260.193L407.618 250.1L417.66 258.584L422.554 252.711L406.673 239.293L393.367 255.259L399.206 260.193Z" fill="black"/>
<path d="M395.75 264.339L389.91 259.405L385.015 265.278L390.855 270.212L395.75 264.339Z" fill="black"/>
<path d="M399.874 267.824L409.91 276.303L418.326 266.206L424.168 271.136L424.166 271.14L410.855 287.11L394.979 273.697L394.97 273.69L399.874 267.824Z" fill="black"/>
<path d="M427.618 266.999L432.513 261.127L426.674 256.193L421.779 262.066L427.618 266.999Z" fill="black"/>
<path d="M414.208 262.723L414.21 262.722L408.284 257.716L404.614 262.12L404.613 262.12L404.192 262.626L403.322 263.67L403.315 263.678L403.323 263.685L409.244 268.687L414.21 262.728L414.213 262.725L414.208 262.723Z" fill="black"/>
<path d="M439.803 248.071L451.476 247.05C454.373 246.797 456.63 247.354 458.245 248.721C459.496 249.78 460.196 251.167 460.346 252.881L460.352 252.954C460.415 253.678 460.382 254.326 460.252 254.897C460.122 255.469 459.927 255.99 459.668 256.463C459.41 256.936 459.098 257.359 458.734 257.731C458.371 258.103 457.973 258.43 457.541 258.711C459.046 259.14 460.259 259.793 461.178 260.674C462.097 261.556 462.631 262.841 462.778 264.531L462.785 264.604C462.886 265.763 462.754 266.796 462.387 267.705C462.019 268.613 461.448 269.393 460.672 270.045C459.897 270.697 458.941 271.218 457.805 271.61C456.669 272.001 455.394 272.258 453.982 272.382L442.02 273.428L439.803 248.071ZM451.205 257.404C452.429 257.297 453.382 257.001 454.064 256.515C454.747 256.03 455.047 255.316 454.965 254.374L454.958 254.302C454.885 253.457 454.516 252.838 453.853 252.446C453.19 252.053 452.271 251.908 451.096 252.011L445.627 252.489L446.096 257.85L451.205 257.404ZM453.574 267.49C454.797 267.383 455.737 267.077 456.394 266.569C457.05 266.061 457.338 265.336 457.255 264.394L457.249 264.322C457.175 263.477 456.793 262.835 456.102 262.396C455.411 261.958 454.346 261.802 452.906 261.928L446.501 262.488L446.989 268.066L453.574 267.491L453.574 267.49Z" fill="black"/>
<path d="M468.128 245.594L473.669 245.11L475.887 270.467L470.345 270.952L468.128 245.594Z" fill="black"/>
<path d="M482.063 244.376L487.171 243.929L500.339 258.51L498.974 242.897L504.443 242.419L506.66 267.776L501.947 268.188L488.339 253.135L489.749 269.255L484.28 269.733L482.063 244.376Z" fill="black"/>
<path d="M521.203 240.771L526.312 240.324L539.341 264.919L533.547 265.425L530.747 259.939L520.096 260.871L518.291 266.759L512.641 267.253L521.203 240.771ZM528.337 255.185L524.272 247.255L521.645 255.771L528.337 255.185Z" fill="black"/>
<path d="M543.105 239.038L548.215 238.591L561.382 253.172L560.016 237.559L565.486 237.081L567.703 262.438L562.99 262.851L549.382 247.797L550.791 263.917L545.322 264.395L543.105 239.038Z" fill="black"/>
<path d="M587.683 261.129C585.836 261.29 584.092 261.102 582.449 260.565C580.806 260.028 579.359 259.223 578.105 258.152C576.851 257.082 575.83 255.778 575.044 254.24C574.256 252.703 573.784 251.029 573.625 249.217L573.619 249.145C573.461 247.334 573.636 245.61 574.146 243.971C574.655 242.333 575.433 240.865 576.48 239.569C577.526 238.273 578.824 237.21 580.37 236.382C581.917 235.553 583.663 235.054 585.606 234.884C586.78 234.781 587.862 234.784 588.851 234.892C589.839 235.001 590.744 235.189 591.565 235.457C592.387 235.727 593.154 236.073 593.868 236.497C594.581 236.922 595.252 237.398 595.878 237.928L592.711 242.329C591.648 241.522 590.586 240.909 589.522 240.491C588.458 240.073 587.291 239.92 586.019 240.031C584.964 240.123 584.004 240.414 583.141 240.903C582.277 241.392 581.553 242.027 580.968 242.808C580.385 243.589 579.954 244.473 579.677 245.458C579.402 246.444 579.311 247.48 579.406 248.566L579.412 248.638C579.507 249.725 579.777 250.736 580.22 251.67C580.665 252.605 581.236 253.406 581.936 254.075C582.634 254.744 583.452 255.251 584.389 255.595C585.326 255.939 586.334 256.063 587.413 255.969C588.853 255.843 590.046 255.471 590.995 254.853C591.944 254.235 592.871 253.424 593.774 252.42L597.614 255.698C597.027 256.455 596.409 257.142 595.763 257.757C595.116 258.374 594.396 258.917 593.603 259.389C592.811 259.859 591.931 260.241 590.966 260.531C590 260.822 588.906 261.022 587.683 261.129Z" fill="black"/>
<path d="M602.276 233.864L621.238 232.206L621.672 237.169L608.179 238.349L608.629 243.493L620.503 242.454L620.937 247.417L609.063 248.455L609.529 253.78L623.202 252.585L623.636 257.547L604.493 259.221L602.276 233.864Z" fill="black"/>
</g>
<defs>
<filter id="filter0_d_8_1063" x="-94.1224" y="71.0443" width="2189.02" height="315.343" filterUnits="userSpaceOnUse" color-interpolation-filters="sRGB">
<feFlood flood-opacity="0" result="BackgroundImageFix"/>
<feColorMatrix in="SourceAlpha" type="matrix" values="0 0 0 0 0 0 0 0 0 0 0 0 0 0 0 0 0 0 127 0" result="hardAlpha"/>
<feOffset dx="30" dy="14"/>
<feGaussianBlur stdDeviation="42"/>
<feComposite in2="hardAlpha" operator="out"/>
<feColorMatrix type="matrix" values="0 0 0 0 0.0472222 0 0 0 0 0.0666667 0 0 0 0 0 0 0 0 0.7 0"/>
<feBlend mode="normal" in2="BackgroundImageFix" result="effect1_dropShadow_8_1063"/>
<feBlend mode="normal" in="SourceGraphic" in2="effect1_dropShadow_8_1063" result="shape"/>
</filter>
<filter id="filter1_d_8_1063" x="-105.039" y="0.929077" width="2189.45" height="455.574" filterUnits="userSpaceOnUse" color-interpolation-filters="sRGB">
<feFlood flood-opacity="0" result="BackgroundImageFix"/>
<feColorMatrix in="SourceAlpha" type="matrix" values="0 0 0 0 0 0 0 0 0 0 0 0 0 0 0 0 0 0 127 0" result="hardAlpha"/>
<feOffset dx="30" dy="14"/>
<feGaussianBlur stdDeviation="42"/>
<feComposite in2="hardAlpha" operator="out"/>
<feColorMatrix type="matrix" values="0 0 0 0 0.0472222 0 0 0 0 0.0666667 0 0 0 0 0 0 0 0 0.1 0"/>
<feBlend mode="normal" in2="BackgroundImageFix" result="effect1_dropShadow_8_1063"/>
<feBlend mode="normal" in="SourceGraphic" in2="effect1_dropShadow_8_1063" result="shape"/>
</filter>
<clipPath id="clip0_8_1063">
<rect width="80" height="48" fill="white" transform="translate(961.921 190.74) rotate(-4.99739)"/>
</clipPath>
<clipPath id="clip1_8_1063">
<rect width="135" height="48" fill="white" transform="translate(723.83 211.56) rotate(-4.99739)"/>
</clipPath>
<clipPath id="clip2_8_1063">
<rect width="143" height="48" fill="white" transform="translate(1145.22 174.712) rotate(-4.99739)"/>
</clipPath>
<clipPath id="clip3_8_1063">
<rect width="142" height="48" fill="white" transform="translate(1391.28 153.196) rotate(-4.99739)"/>
</clipPath>
<clipPath id="clip4_8_1063">
<rect width="238" height="48" fill="white" transform="translate(383.13 241.352) rotate(-4.99739)"/>
</clipPath>
</defs>
</svg>
