<svg width="32" height="32" viewBox="0 0 32 32" fill="none" xmlns="http://www.w3.org/2000/svg">
<path d="M2 5.02367C2 3.35374 3.35374 2 5.02367 2H26.9763C28.6463 2 30 3.35374 30 5.02367V26.9763C30 28.6463 28.6463 30 26.9763 30H5.02367C3.35374 30 2 28.6463 2 26.9763V5.02367Z" fill="#C9FA49"/>
<rect x="8.95856" y="20.4734" width="14.9941" height="2.56805" rx="1.28402" fill="#384612"/>
<rect x="12.7278" y="14.8403" width="11.2249" height="2.56805" rx="1.28402" fill="#384612"/>
<rect x="8.95856" y="9.20703" width="14.9941" height="2.56805" rx="1.28402" fill="#384612"/>
<path d="M12.3317 11.775C12.5816 11.4094 12.7278 10.9672 12.7278 10.491C12.7278 10.0382 12.5957 9.61634 12.368 9.26172L14.9645 11.775H12.3317Z" fill="#2D380F"/>
<path d="M16.5151 17.4082C16.765 17.0426 16.9112 16.6004 16.9112 16.1241C16.9112 15.7121 16.8018 15.3257 16.6105 14.9922L19.1065 17.4082H16.5151Z" fill="#2D380F"/>
<path d="M12.3317 23.0416C12.5816 22.676 12.7278 22.2338 12.7278 21.7576C12.7278 21.3048 12.5957 20.8829 12.368 20.5283L14.9645 23.0416H12.3317Z" fill="#2D380F"/>
<circle cx="10.4497" cy="10.491" r="2.27811" fill="black"/>
<circle cx="14.6331" cy="16.1243" r="2.27811" fill="black"/>
<circle cx="10.4497" cy="21.7574" r="2.27811" fill="black"/>
</svg>
