<svg width="32" height="32" viewBox="0 0 32 32" fill="none" xmlns="http://www.w3.org/2000/svg">
<path fill-rule="evenodd" clip-rule="evenodd" d="M6.66669 2.66675C4.45755 2.66675 2.66669 4.45761 2.66669 6.66674V25.3334C2.66669 27.5426 4.45754 29.3334 6.66668 29.3334H25.3334C27.5425 29.3334 29.3334 27.5426 29.3334 25.3334V6.66675C29.3334 4.45761 27.5425 2.66675 25.3334 2.66675H6.66669ZM11.6667 12.0001C11.6667 11.0796 12.4129 10.3334 13.3334 10.3334C14.2538 10.3334 15 11.0796 15 12.0001V20.0001C15 22.0251 16.6416 23.6667 18.6667 23.6667C20.6917 23.6667 22.3334 22.0251 22.3334 20.0001V18.6667C22.3334 17.7463 23.0795 17.0001 24 17.0001H25.3334C25.8856 17.0001 26.3334 16.5524 26.3334 16.0001C26.3334 15.4478 25.8856 15.0001 25.3334 15.0001H24C21.975 15.0001 20.3334 16.6417 20.3334 18.6667V20.0001C20.3334 20.9206 19.5872 21.6667 18.6667 21.6667C17.7462 21.6667 17 20.9206 17 20.0001V12.0001C17 9.97504 15.3584 8.33341 13.3334 8.33341C11.3083 8.33341 9.66669 9.97504 9.66669 12.0001V13.3334C9.66669 14.2539 8.9205 15.0001 8.00002 15.0001H6.66669C6.1144 15.0001 5.66669 15.4478 5.66669 16.0001C5.66669 16.5524 6.1144 17.0001 6.66669 17.0001H8.00002C10.0251 17.0001 11.6667 15.3585 11.6667 13.3334V12.0001Z" fill="#C9FA49"/>
</svg>
